<svg width="22" height="15" viewBox="0 0 22 15" fill="none" xmlns="http://www.w3.org/2000/svg">
<path d="M21.7439 6.40866L15.6014 0.243668C15.4362 0.0852305 15.2154 -0.0022176 14.9865 4.27524e-05C14.7575 0.0023031 14.5386 0.0940923 14.3765 0.255762C14.2144 0.417432 14.122 0.636135 14.1191 0.865056C14.1162 1.09398 14.2031 1.31492 14.3611 1.4806L18.9778 6.11337H1.87597C1.75663 6.10605 1.63706 6.12324 1.52461 6.16388C1.41217 6.20451 1.30923 6.26773 1.22214 6.34964C1.13505 6.43155 1.06564 6.53043 1.0182 6.64017C0.970763 6.74991 0.946289 6.8682 0.946289 6.98775C0.946289 7.10731 0.970763 7.2256 1.0182 7.33534C1.06564 7.44508 1.13505 7.54395 1.22214 7.62586C1.30923 7.70777 1.41217 7.77099 1.52461 7.81162C1.63706 7.85226 1.75663 7.86945 1.87597 7.86214H19.0468L14.3644 12.4916C14.2753 12.5708 14.2033 12.6673 14.1529 12.7753C14.1024 12.8832 14.0744 13.0004 14.0708 13.1195C14.0671 13.2386 14.0878 13.3572 14.1316 13.4681C14.1754 13.5789 14.2413 13.6797 14.3253 13.7642C14.4094 13.8486 14.5098 13.9151 14.6204 13.9595C14.7311 14.0038 14.8496 14.0251 14.9687 14.0221C15.0879 14.0191 15.2051 13.9918 15.3134 13.9419C15.4216 13.892 15.5185 13.8205 15.5982 13.7318L21.7407 7.64887C21.8222 7.5675 21.8869 7.47084 21.9311 7.36444C21.9752 7.25803 21.9979 7.14396 21.9979 7.02876C21.9979 6.91356 21.9752 6.7995 21.9311 6.69309C21.8869 6.58668 21.8222 6.49003 21.7407 6.40866H21.7439Z" fill="white"/>
</svg>
